<?xml version="1.0" encoding="UTF-8" standalone="no"?>
<!-- Created with Inkscape (http://www.inkscape.org/) -->

<svg
   version="1.1"
   id="svg48"
   width="32"
   height="32"
   viewBox="0 0 32 32"
   sodipodi:docname="Fav_Icon.svg"
   inkscape:version="1.2.1 (9c6d41e, 2022-07-14)"
   inkscape:export-filename="Fav_Icon_32.png"
   inkscape:export-xdpi="96"
   inkscape:export-ydpi="96"
   xmlns:inkscape="http://www.inkscape.org/namespaces/inkscape"
   xmlns:sodipodi="http://sodipodi.sourceforge.net/DTD/sodipodi-0.dtd"
   xmlns="http://www.w3.org/2000/svg"
   xmlns:svg="http://www.w3.org/2000/svg">
  <defs
     id="defs52" />
  <sodipodi:namedview
     id="namedview50"
     pagecolor="#ffffff"
     bordercolor="#000000"
     borderopacity="0.25"
     inkscape:showpageshadow="2"
     inkscape:pageopacity="0.0"
     inkscape:pagecheckerboard="true"
     inkscape:deskcolor="#d1d1d1"
     showgrid="true"
     inkscape:zoom="8.2399374"
     inkscape:cx="4.186925"
     inkscape:cy="11.711254"
     inkscape:window-width="1642"
     inkscape:window-height="1023"
     inkscape:window-x="0"
     inkscape:window-y="38"
     inkscape:window-maximized="0"
     inkscape:current-layer="g54"
     showguides="true">
    <sodipodi:guide
       position="959.16754,-389.95558"
       orientation="1,0"
       id="guide663"
       inkscape:locked="false" />
  </sodipodi:namedview>
  <g
     inkscape:groupmode="layer"
     inkscape:label="Image"
     id="g54">
    <path
       id="path276"
       style="display:none;fill:#000000;stroke-width:0.666667"
       d="m 165.36454,709.71829 c 6.5357,-1.38554 12.82676,-4.65254 17.65321,-9.16747 4.595,-4.2984 9.29231,-10.7812 8.77972,-12.117 -0.32704,-0.85227 -15.02182,-9.10047 -16.21314,-9.10047 -0.36354,0 -1.58702,1.31373 -2.71882,2.91947 -4.15837,5.89953 -12.32744,9.6104 -19.48611,8.8518 -8.78439,-0.93087 -14.47984,-4.75954 -18.13995,-12.19427 -1.83915,-3.7358 -2.14542,-5.0774 -2.16087,-9.46487 -0.0243,-6.89844 1.51815,-11.19872 5.63081,-15.69862 4.65706,-5.09557 8.60636,-6.72618 16.29061,-6.72618 7.95953,0 11.66563,1.60676 16.70407,7.24196 l 3.63962,4.07071 8.32102,-4.33333 c 4.57656,-2.38334 8.32424,-4.59524 8.32816,-4.91534 0.0149,-1.21266 -6.08774,-9.05486 -9.13046,-11.73317 -10.99086,-9.67453 -27.19099,-12.75229 -42.27274,-8.03111 -11.85246,3.71029 -21.38954,13.26822 -25.43588,25.49149 -1.13939,3.4419 -1.39203,5.91051 -1.4179,13.85479 -0.0275,8.4372 0.17128,10.28954 1.56258,14.56367 3.11965,9.5838 11.05858,18.9022 19.70153,23.12487 8.19447,4.0036 20.77195,5.39667 30.36454,3.36307 z m 97.15108,-59.73001 c -4.54093,0.0967 -9.1872,1.08019 -13.63476,3.04102 -3.89365,1.71662 -8.76956,5.93528 -11.57422,10.01172 -6.30486,9.16383 -6.30486,25.42208 0,34.58593 4.11561,5.98181 9.9756,10.15557 16.86133,12.00977 4.08103,1.09887 12.93699,1.27985 16.97656,0.34766 19.40991,-4.47933 28.66858,-26.31166 19.01758,-44.84766 -5.12785,-9.84874 -16.04188,-15.39556 -27.64649,-15.14844 z m 0.19727,19.44336 c 3.69511,0.0235 7.64879,1.59087 9.75,4.3457 1.4649,1.9206 1.78276,3.05185 1.82227,6.49219 0.0414,3.6046 -0.21088,4.50621 -1.87305,6.68555 -1.05667,1.38546 -2.92131,2.93816 -4.14453,3.44922 -3.4606,1.44594 -8.35325,1.19115 -10.94141,-0.57032 -3.87503,-2.63732 -4.99219,-4.76473 -4.99219,-9.5 0,-4.53579 1.01181,-6.62115 4.46485,-9.19921 1.57329,-1.17463 3.697,-1.71725 5.91406,-1.70313 z m 69.62044,39.55565 c 4.7415,-1.9532 4.33334,-1.89327 4.33334,-0.63614 0,0.875 1.37995,0.99194 9.83333,0.83334 l 9.83333,-0.18447 V 680.33335 651.66668 L 346.5,651.4822 l -9.83333,-0.1845 v 18.03925 c 0,19.94693 -0.29867,21.749 -3.91438,23.6188 -3.81704,1.97387 -8.37442,1.015 -10.57628,-2.22513 -1.04066,-1.5314 -1.20143,-3.89807 -1.39689,-20.56394 l -0.22088,-18.83333 h -9.64755 -9.64756 l 0.21837,20.83333 c 0.19347,18.4574 0.36341,21.23967 1.49014,24.3966 1.40672,3.9414 6.03913,9.55274 9.28172,11.24314 6.33319,3.30167 13.85751,3.74413 20.07997,1.18087 z m 79.00065,-81.0244 v 13.08984 c 0,12.20849 -0.0798,13.05655 -1.16796,12.59961 -5.78492,-2.42924 -8.52377,-3.17066 -12.83204,-3.4707 -16.42297,-1.14375 -28.84026,8.88563 -30.61718,24.73047 -1.95582,17.43998 5.68784,30.98265 19.61718,34.76172 4.32088,1.17227 12.43631,1.21502 16.66602,0.0879 1.83333,-0.48853 4.29334,-1.3831 5.4668,-1.99024 2.70393,-1.39892 2.86718,-1.38688 2.86718,0.22852 0,1.27207 0.4445,1.33398 9.67188,1.33398 h 9.67187 l -0.17187,-40.5 -0.17188,-40.5 -9.5,-0.18554 z m -13.1875,40.59961 c 8.70452,-0.15776 15.54103,8.55509 11.01954,17.43359 -2.88261,5.66034 -10.79221,7.73284 -17.18946,4.50391 -7.92372,-3.9994 -7.94718,-16.18895 -0.0391,-20.30469 2.09092,-1.08821 4.20025,-1.5964 6.20898,-1.63281 z m 118.12285,40.78725 c 2.8321,-0.72433 7.00509,-2.28746 9.2733,-3.4736 4.89772,-2.56113 12.01526,-9.54747 14.6304,-14.36067 l 1.8397,-3.386 -8.0432,-4.39806 C 526.05399,679.40315 524,678.64262 524,680.03995 c 0,1.5858 -6.87957,7.88867 -10.19881,9.34393 -5.17026,2.26674 -13.4268,2.18527 -18.57144,-0.18326 -4.4347,-2.04167 -8.53532,-6.0336 -10.68874,-10.4054 -1.29894,-2.63707 -1.54101,-4.1758 -1.54101,-9.7952 0,-7.98357 1.22302,-11.25811 5.98245,-16.01755 4.69634,-4.69634 8.06556,-5.98135 15.68422,-5.98195 5.61468,-4.5e-4 6.7726,0.2152 10.20458,1.90042 2.64902,1.30075 4.72414,2.9846 6.57262,5.33333 1.48576,1.88783 2.94151,3.52335 3.23501,3.6345 0.97401,0.36885 16.65445,-7.86317 16.65445,-8.74337 0,-1.73098 -3.88321,-6.89 -8.25311,-10.96462 -8.98971,-8.38225 -20.62119,-12.11452 -33.41355,-10.72162 -20.32109,2.21266 -33.47836,15.02318 -36.43541,35.4752 -1.42956,9.88732 1.00093,21.80286 6.05323,29.67619 5.10668,7.95807 15.34722,15.01674 24.71551,17.03607 6.52142,1.40573 16.15897,1.28587 22.26933,-0.27687 z m 60.79317,-59.2267 c -14.46129,0.26468 -25.45917,8.8472 -28.72461,22.69726 -3.94061,16.71379 5.00761,32.4347 20.99609,36.89063 4.21835,1.17567 13.00054,1.14276 17.64258,-0.0664 15.04663,-3.91912 23.81129,-17.38658 21.74805,-33.41797 -1.98465,-15.42063 -12.68326,-25.1214 -28.72461,-26.04493 -0.99361,-0.0572 -1.97341,-0.0762 -2.9375,-0.0586 z m 1.09766,19.25 c 3.2656,-0.0538 6.34425,1.27043 8.80859,3.89062 1.66253,1.76766 2.00639,2.73998 2.20703,6.24805 0.29319,5.12639 -1.14895,8.15315 -4.91211,10.31055 -3.21104,1.84092 -8.30277,1.99234 -11.58398,0.34375 -3.61634,-1.81687 -5.34571,-4.95143 -5.34571,-9.68555 0,-5.02967 1.75844,-8.13163 5.60157,-9.87695 1.75195,-0.79567 3.51405,-1.20232 5.22461,-1.23047 z m 97.76953,-41.30469 c -1.33498,9.6e-4 -3.10104,0.0343 -5.44727,0.0801 L 661,628.33398 660.81836,641.16602 C 660.71876,648.22435 660.54095,654 660.42188,654 c -0.11909,0 -1.18588,-0.48198 -2.36915,-1.07227 -5.95509,-2.97079 -14.46937,-3.71164 -21.62304,-1.8789 C 623.62568,654.32916 616,665.26095 616,680.33398 c 0,14.91132 7.42136,25.77825 20.01562,29.30664 5.55759,1.557 15.17662,1.02765 20.48438,-1.12695 3.95583,-1.6058 4.16602,-1.62717 4.16602,-0.41797 0,1.20454 0.53429,1.26235 9.83398,1.08789 L 680.33398,709 l 0.1836,-39 c 0.10134,-21.44998 0.019,-39.68257 -0.1836,-40.51758 -0.27324,-1.1269 -0.39937,-1.41695 -4.40429,-1.41406 z m -28.22657,40.72852 c 4.15018,-0.0316 8.32921,1.64672 10.46876,4.58789 4.24464,5.83492 1.54322,15.41558 -5.04883,17.90625 -2.55726,0.96619 -8.35123,0.84749 -10.80274,-0.22071 -2.99986,-1.30713 -6.30377,-5.39086 -6.41406,-7.92773 -0.32172,-7.40025 1.38433,-10.94631 6.34961,-13.20117 1.68029,-0.76304 3.56082,-1.13016 5.44726,-1.14453 z m 72.81055,-18.6836 c -15.23943,-0.23911 -26.80421,8.40685 -30.17578,22.70703 -3.96773,16.82892 5.2158,32.73877 21.32813,36.94922 4.25545,1.11207 16.81549,0.69344 21.20703,-0.70703 4.84965,-1.5466 9.60225,-4.35599 12.16211,-7.18945 1.26366,-1.39873 2.29882,-2.78147 2.29882,-3.07227 0,-0.2908 -3.27221,-2.39498 -7.27148,-4.67578 l -7.27148,-4.14648 -3.50391,2.17773 c -4.75967,2.95873 -10.08514,3.07378 -14.77539,0.32031 C 711.77532,690.8701 710,688.99494 710,687.71094 c 0,-0.2074 8.83666,-0.37696 19.63672,-0.37696 h 19.63672 l 0.45312,-2.41406 c 0.68366,-3.64425 -0.25993,-12.51359 -1.75586,-16.51172 -4.20559,-11.24044 -13.21898,-17.57178 -25.9707,-18.24414 -0.49909,-0.0263 -0.99473,-0.0431 -1.48633,-0.0508 z m -0.29687,16.65234 c 4.39488,-0.003 8.72375,1.38449 10.34375,3.97852 0.75613,1.21073 0.39115,1.25586 -10.22071,1.25586 -6.31846,0 -11.00586,-0.26421 -11.00586,-0.61914 0,-0.34007 0.78938,-1.23744 1.75391,-1.99609 2.25298,-1.77218 5.71066,-2.61673 9.12891,-2.61915 z m 197.58398,-16.75195 c -8.08169,0.0857 -16.17867,2.96774 -21.83203,8.6211 -11.04959,11.04952 -11.39501,30.68092 -0.75195,42.74804 2.98952,3.38954 9.36215,7.09541 14.44922,8.40235 4.96879,1.27652 16.9848,0.69578 21.94726,-1.06055 5.05753,-1.79007 9.994,-4.96521 12.1836,-7.83594 0.94726,-1.24194 1.60569,-2.36073 1.46289,-2.48633 -0.14273,-0.12553 -3.44782,-2.0787 -7.34375,-4.33984 l -7.08204,-4.11133 -3.28125,2.03906 c -4.59079,2.8538 -8.90194,3.28093 -13.4414,1.32813 C 910.927,691.94849 908,689.35802 908,687.91016 c 0,-0.3172 8.81592,-0.57618 19.58984,-0.57618 h 19.58789 l 0.40235,-1.5 c 0.22113,-0.82499 0.40331,-3.00065 0.40625,-4.83398 0.014,-9.09206 -3.11476,-17.54646 -8.44922,-22.82812 -5.5895,-5.53412 -13.65464,-8.24392 -21.73633,-8.15821 z m 66.67969,0.01 c -5.06748,0.009 -10.27273,1.13487 -15.14063,3.50976 -4.28939,2.09266 -10.41567,8.3812 -12.27734,12.60352 -5.72139,12.97657 -3.22363,28.04169 6.05469,36.52148 4.23006,3.86607 7.34628,5.62225 12.38281,6.97852 5.20325,1.40107 14.02286,1.26744 20.16992,-0.30469 2.86873,-0.73367 6.52328,-2.09883 8.12108,-3.03515 3.7506,-2.198 7.6731,-6.13191 7.4121,-7.43165 -0.1123,-0.55873 -3.3036,-2.80654 -7.0918,-4.99414 l -6.88669,-3.97656 -2.44531,1.68359 c -3.81586,2.6288 -8.11845,3.53961 -11.94532,2.52735 -3.43192,-0.90787 -7.70282,-3.92061 -8.04882,-5.67774 -0.196,-0.99512 1.56783,-1.09375 19.41601,-1.09375 h 19.63283 l 0.416,-2.08398 c 1.0848,-5.42393 -0.4303,-14.61702 -3.3633,-20.41406 -4.7747,-9.43712 -15.25778,-14.83144 -26.40623,-14.8125 z m -66.94141,16.67187 c 5.1624,-0.0595 11.12696,2.4412 11.12696,4.66407 0,0.38306 -4.28763,0.64062 -10.66602,0.64062 -5.86666,0 -10.66602,-0.2527 -10.66602,-0.5625 0,-1.93326 5.93763,-4.69299 10.20508,-4.74219 z m 67.23828,0.0586 c 3.05998,0.0403 6.01243,0.79683 7.95508,2.11328 4.23673,2.87093 3.56164,3.13281 -8.0664,3.13281 -8.32374,0 -10.71524,-0.19039 -10.50391,-0.83398 0.49287,-1.50113 4.54128,-3.75739 7.55273,-4.20899 1.01044,-0.15152 2.04251,-0.21656 3.0625,-0.20312 z M 220,668.64835 v -40.68494 l -9.5,0.18497 -9.5,0.18497 -0.17183,40.5 -0.17183,40.5 H 210.32817 220 Z m 596.66667,9.369 V 646.70141 L 826.83333,646.51738 837,646.33335 v -9 -9 h -30 -30 v 9 9 l 10.16667,0.18403 10.16666,0.18403 v 31.31594 31.316 H 807 816.66667 Z M 864,692.96835 c 0.286,-13.75527 0.4984,-16.28327 1.4958,-17.80347 3.03413,-4.62453 6.92307,-6.6156 13.17087,-6.74306 L 883,668.33335 v -9 -9 l -2.85973,-0.20629 c -4.38487,-0.3163 -9.49987,1.4745 -12.99234,4.54866 l -3.06913,2.70158 -0.20607,-2.85531 -0.20606,-2.85531 -9.83334,-0.18448 L 844,651.2977 v 29.03565 29.03567 l 9.83333,-0.18453 9.83334,-0.18447 z" />
    <circle
       style="fill:#800080;stroke:#ffffff;stroke-width:1;stroke-dasharray:none;stroke-opacity:1"
       id="path258"
       cx="16"
       cy="16"
       r="15.058823" />
    <path
       id="path320"
       style="display:inline;fill:#ffffff;stroke-width:0.0272998"
       d="m 13.903832,6.7551848 c -0.301759,4.578e-4 -0.600725,0.01585 -0.795876,0.045988 C 11.457574,7.0560456 10.04124,7.9526596 9.1204222,9.3256436 8.9078432,9.6426095 8.6497326,10.146693 8.5108992,10.515977 l -0.102454,0.27257 -0.190992,0.03351 c -1.052848,0.184683 -1.9112111,0.602053 -2.6303617,1.27903 -1.0270348,0.966808 -1.5880376,2.26158 -1.5870318,3.662658 0.0011,1.521222 0.675361,2.931153 1.8559224,3.880761 0.6953092,0.559286 1.4709261,0.903514 2.3889053,1.060208 0.194334,0.03316 0.572953,0.04454 1.8112146,0.05438 l 1.565517,0.0124 -0.01016,0.591368 c -0.0091,0.527827 -0.01626,0.604595 -0.06694,0.715495 -0.08246,0.1804 -0.208119,0.310304 -0.371585,0.384142 -0.137646,0.06218 -0.173414,0.06518 -0.873775,0.07366 l -0.7302919,0.0088 v 0.571292 0.571296 h 0.7737209 c 0.68383,0 0.798722,-0.0064 0.989585,-0.05464 0.553329,-0.14004 1.010513,-0.52326 1.253919,-1.051002 0.16943,-0.367264 0.163242,-0.24978 0.163242,-3.084725 v -2.593487 l -0.06399,-0.204747 C 12.464986,15.993231 11.912793,15.48651 11.221081,15.355294 11.063889,15.325475 11.038793,15.312321 11.024652,15.25244 10.954805,14.956661 10.721463,14.576203 10.463357,14.337236 10.08684,13.988639 9.6063513,13.814819 9.09115,13.840884 c -0.657522,0.03326 -1.2234894,0.374137 -1.5535206,0.935598 -0.2021642,0.34393 -0.2484072,0.527219 -0.2473764,0.980628 7.81e-4,0.345298 0.00788,0.401413 0.073902,0.58161 0.2772056,0.756591 0.9044396,1.247342 1.6686904,1.305505 0.7592229,0.05778 1.4894446,-0.349653 1.8295296,-1.020778 0.06841,-0.134996 0.07581,-0.140756 0.160358,-0.125248 0.210707,0.03864 0.414041,0.212253 0.522905,0.446445 0.05493,0.11816 0.05742,0.171056 0.06542,1.385484 l 0.0083,1.262555 h -1.462186 c -1.5375698,0 -1.7622468,-0.01358 -2.1932758,-0.133006 -0.898552,-0.249001 -1.7251123,-0.861128 -2.2256677,-1.648215 -0.443241,-0.696965 -0.6714928,-1.700636 -0.5665738,-2.491119 0.1209028,-0.910916 0.4675536,-1.624878 1.0939584,-2.253101 0.4548767,-0.456196 0.9228887,-0.754051 1.4741807,-0.938238 0.3169344,-0.105888 0.593905,-0.160029 1.146585,-0.224103 0.2026998,-0.0235 0.3831334,-0.05484 0.4009368,-0.06958 0.0178,-0.01476 0.040694,-0.06469 0.050868,-0.111012 0.050819,-0.231385 0.3068317,-0.943329 0.4350071,-1.20961 0.3540533,-0.7355381 0.9349733,-1.3968 1.6247813,-1.849604 0.205643,-0.1349876 0.753519,-0.4091954 0.982787,-0.4918734 0.427864,-0.154294 1.083514,-0.265088 1.563839,-0.264252 0.692456,0.00121 1.351625,0.15189 1.984769,0.4536434 0.374163,0.178324 0.725465,0.4093794 1.133148,0.7453282 0.16511,0.136058 0.314099,0.2473763 0.331115,0.2473763 0.01702,0 0.216149,-0.067174 0.442446,-0.1493219 0.62909,-0.2283662 0.868632,-0.2721832 1.492416,-0.2728092 0.551759,-5.656e-4 0.702438,0.021156 1.17386,0.169076 0.691072,0.2168388 1.408373,0.7190085 1.833049,1.2832696 0.263778,0.350482 0.497234,0.802024 0.691262,1.337176 0.03386,0.09338 0.07558,0.180512 0.09268,0.19355 0.0172,0.01304 0.23083,0.06224 0.474998,0.109412 0.530132,0.102416 0.771014,0.179416 1.152904,0.368385 0.755416,0.373803 1.317406,0.935552 1.699964,1.699163 0.266864,0.53268 0.371616,0.946741 0.394218,1.558639 0.0094,0.257472 0.003,0.499434 -0.0172,0.641515 -0.210846,1.485359 -1.24075,2.696283 -2.663794,3.131994 -0.495992,0.151864 -0.68085,0.167318 -1.993646,0.167318 H 20.97807 l 0.0078,-1.262555 0.0078,-1.262635 0.0819,-0.148042 c 0.07676,-0.138752 0.266632,-0.313605 0.320878,-0.295524 0.0134,0.0044 0.08786,0.08676 0.165639,0.182912 0.355676,0.439842 0.930736,0.711995 1.501374,0.710617 0.789512,-0.0019 1.524414,-0.53314 1.7841,-1.289589 0.07115,-0.206937 0.07733,-0.256946 0.07697,-0.62088 -4.8e-4,-0.358732 -0.0074,-0.415349 -0.07352,-0.603285 -0.106748,-0.303106 -0.250806,-0.532017 -0.470552,-0.748047 -0.229048,-0.225168 -0.464764,-0.369733 -0.765964,-0.469798 -0.1886,-0.06266 -0.264932,-0.07269 -0.559616,-0.07358 -0.25237,-7.54e-4 -0.383142,0.01164 -0.50219,0.04783 -0.719622,0.218692 -1.240381,0.777922 -1.378199,1.480019 l -0.04318,0.220024 -0.23258,0.11357 c -0.508916,0.248414 -0.854412,0.663956 -1.015983,1.222006 l -0.06287,0.217144 v 2.52527 c 0,2.326862 0.0038,2.539982 0.04831,2.713542 0.140538,0.547714 0.494989,0.98484 1.008541,1.24376 0.35357,0.17826 0.48498,0.19492 1.468343,0.1862 l 0.859938,-0.0076 0.006,-0.50507 c 0.0032,-0.277772 2.96e-4,-0.53186 -0.007,-0.564652 -0.0128,-0.05946 -0.0152,-0.05966 -0.838666,-0.06832 -0.92325,-0.0098 -0.948241,-0.0142 -1.148843,-0.20786 -0.212526,-0.20512 -0.221826,-0.242778 -0.23154,-0.937597 l -0.0086,-0.61824 1.291745,-0.0132 c 1.374538,-0.014 1.455862,-0.02084 2.03156,-0.167 0.270356,-0.06866 0.756742,-0.250584 0.995182,-0.372226 0.596824,-0.304476 1.278238,-0.874112 1.680854,-1.40516 0.68551,-0.904376 1.02248,-1.896717 1.02418,-3.016488 0.0012,-0.804555 -0.13374,-1.415114 -0.468998,-2.121934 -0.583082,-1.229515 -1.59795,-2.137427 -2.888562,-2.584222 -0.14488,-0.05016 -0.356936,-0.11175 -0.471238,-0.136924 -0.1882,-0.04145 -0.211792,-0.05407 -0.249776,-0.133486 -0.02308,-0.04823 -0.09142,-0.192131 -0.15188,-0.319757 -0.146018,-0.308336 -0.4543,-0.7666075 -0.711946,-1.0583721 -1.031418,-1.1680017 -2.561109,-1.7941193 -4.085829,-1.6723693 -0.433509,0.034616 -0.667837,0.077336 -1.082123,0.1973092 L 17.597045,8.0531728 17.397896,7.9032912 C 16.611407,7.3113328 15.714399,6.9418442 14.716263,6.7987736 14.51016,6.7692312 14.205591,6.7547372 13.903832,6.7551848 Z m 9.137409,8.1147122 c 0.329838,0 0.645512,0.234999 0.721896,0.537542 0.04868,0.192842 0.03486,0.336971 -0.04944,0.515147 -0.14836,0.313623 -0.48006,0.484484 -0.81451,0.419652 -0.40305,-0.07813 -0.683668,-0.511577 -0.58225,-0.899368 0.0893,-0.341482 0.381952,-0.572973 0.724294,-0.572973 z M 9.0923496,15.008421 c 0.030046,-7.81e-4 0.06465,4.04e-4 0.107972,0.0026 0.6656859,0.03334 0.9605174,0.787356 0.4972317,1.271665 -0.168227,0.175849 -0.5375829,0.24707 -0.7995537,0.154107 -0.124369,-0.04413 -0.3164906,-0.215406 -0.3804622,-0.339113 -0.071804,-0.138853 -0.099619,-0.351809 -0.066623,-0.510748 0.045328,-0.218339 0.175267,-0.385829 0.3833414,-0.494273 0.1190274,-0.06204 0.167952,-0.08187 0.2580938,-0.08422 z M 13.878078,9.8791007 c -0.700598,-0.01576 -1.404997,0.3901023 -1.723476,1.0262963 -0.170766,0.34112 -0.220672,0.582038 -0.204028,0.984386 0.01084,0.261859 0.02724,0.357102 0.09262,0.536743 0.245053,0.673382 0.840695,1.149577 1.556,1.24392 0.369392,0.04872 0.532008,0.149696 0.662949,0.411734 l 0.08422,0.168516 v 4.719026 6.275103 l 0.580091,-0.0076 0.580091,-0.0076 v -6.319407 -4.763815 l -0.06174,-0.213145 c -0.06374,-0.219922 -0.15426,-0.418765 -0.27113,-0.595367 l -0.06718,-0.101414 0.162758,-0.19387 c 0.321309,-0.382676 0.469399,-0.779316 0.469399,-1.257596 0,-0.938011 -0.62048,-1.682087 -1.561678,-1.8727987 -0.0988,-0.020018 -0.198798,-0.030862 -0.298884,-0.033112 z m -0.131406,1.1718583 c 0.0332,-2.96e-4 0.07243,0.0012 0.121888,0.0037 0.246775,0.0124 0.347453,0.05409 0.500591,0.207228 0.291253,0.291251 0.295871,0.742733 0.01058,1.035653 -0.204379,0.209804 -0.528347,0.282026 -0.812452,0.181151 -0.333403,-0.118377 -0.538036,-0.515541 -0.451484,-0.876334 0.04613,-0.19229 0.202218,-0.387896 0.384221,-0.481476 0.101996,-0.05244 0.147062,-0.06906 0.246656,-0.0699 z M 19.180394,10.5047 c -0.263343,0.0098 -0.526834,0.07792 -0.791396,0.204187 -0.216412,0.103292 -0.291989,0.158095 -0.477877,0.346871 -0.347617,0.353013 -0.503332,0.671087 -0.566815,1.157622 -0.04589,0.351725 0.01747,0.677457 0.204427,1.05093 l 0.146124,0.291845 -0.07342,0.05423 c -0.189354,0.139994 -0.461028,0.595136 -0.564413,0.945517 -0.04523,0.153282 -0.04888,0.449432 -0.05615,4.612813 -0.0043,2.44693 -0.0016,6.02105 0.0059,6.040602 0.01074,0.02796 0.134764,0.03396 0.58073,0.02816 l 0.567135,-0.0076 0.0136,-5.992295 0.01368,-4.436218 0.05926,-0.110612 c 0.13689,-0.255539 0.378262,-0.40529 0.630786,-0.39108 0.555839,0.03128 0.861658,-0.0121 1.195055,-0.169636 0.49512,-0.233933 0.90889,-0.746133 1.034372,-1.28039 0.05944,-0.253031 0.0545,-0.654313 -0.0112,-0.911526 -0.144536,-0.565065 -0.58574,-1.072848 -1.119402,-1.288336 -0.263846,-0.106538 -0.527016,-0.154918 -0.790358,-0.145083 z m 0.03728,1.174018 c 0.128574,-9.42e-4 0.264148,0.02121 0.353909,0.06478 0.473379,0.229811 0.549503,0.867178 0.146842,1.229204 -0.153236,0.137778 -0.263917,0.176938 -0.500591,0.177156 -0.123278,1.22e-4 -0.201268,-0.01784 -0.307041,-0.07054 -0.279796,-0.13943 -0.433726,-0.415565 -0.408296,-0.732374 0.02298,-0.286278 0.180202,-0.502713 0.452764,-0.62328 0.06671,-0.0295 0.162416,-0.04421 0.262413,-0.04495 z"
       sodipodi:nodetypes="scscccssssccsssccccssssccsssssssssssccsssssssssssssssssssssssssscsscccsscsssssssssccscsssccscsssccssssssssssssccssssssssscsssssssssssccccccccccccsssscssssssssssscccssscccccssssssssscssss" />
  </g>
</svg>
